<svg xmlns="http://www.w3.org/2000/svg" width="65.815" height="66" viewBox="0 0 65.815 66"><g transform="translate(0.015)"><path d="M43.5.6a.55.55,0,0,1-.3.5,6.669,6.669,0,0,0-3,5.6c0,33.4.3,20.8-1.3,55.4a6.709,6.709,0,0,1-9.4,1.4,6.528,6.528,0,0,1-2.6-4.4,1.09,1.09,0,0,0-1.1-1H13.3V6.7A6.7,6.7,0,0,1,20,0H42.9a.645.645,0,0,1,.6.6Z" fill="#08475e"/><path d="M33.4,64.9H6.6A6.75,6.75,0,0,1,0,59.5a1.13,1.13,0,0,1,.9-1.3H25.6a1.09,1.09,0,0,1,1.1,1A6.784,6.784,0,0,0,33.4,64.9Z" fill="#0a789b"/><path d="M2.1,13.3H24.6a1,1,0,0,1,1,1V54.7a1,1,0,0,1-1,1H2.1a1,1,0,0,1-1-1V14.3A.942.942,0,0,1,2.1,13.3Z" fill="#2980ba"/><path d="M6.4,15.7H20.3a2.051,2.051,0,0,1,2.1,2.1h0V51.6a2.051,2.051,0,0,1-2.1,2.1H6.4a2.051,2.051,0,0,1-2.1-2.1V17.8A2.051,2.051,0,0,1,6.4,15.7Z" fill="#0a789b"/><path d="M7.7,20.1H18.9a2.22,2.22,0,0,1,2.2,2.2h0a2.22,2.22,0,0,1-2.2,2.2H7.7a2.22,2.22,0,0,1-2.2-2.2h0A2.22,2.22,0,0,1,7.7,20.1Z" fill="#65ddb9"/><g transform="translate(6.302 7.505)"><circle cx="2.2" cy="2.2" r="2.2" transform="translate(0.3 21.6)" fill="#f3d55b"/><circle cx="2.2" cy="2.2" r="2.2" transform="translate(0.3 29.4)" fill="#f3d55b"/><circle cx="2.2" cy="2.2" r="2.2" transform="translate(0.3 37.3)" fill="#f3d55b"/><circle cx="2.2" cy="2.2" r="2.2" transform="translate(9.3 21.6)" fill="#f3d55b"/><circle cx="2.2" cy="2.2" r="2.2" transform="translate(9.3 29.4)" fill="#f3d55b"/><circle cx="2.2" cy="2.2" r="2.2" transform="translate(9.3 37.3)" fill="#f3d55b"/><path d="M49.9,8.1,32.5.4h-11a1.135,1.135,0,0,0-1.1,1.2.908.908,0,0,0,.3.7L28,10.6l17.4,7.8Z" fill="#f3d55b"/><path d="M57.9,13.5a5.381,5.381,0,0,0-3-3.1L49.8,8.1,45.2,18.3l5.1,2.3a5.6,5.6,0,0,0,7.4-2.8,5,5,0,0,0,.2-4.3Z" fill="#f3d55b"/></g><path d="M34.3,18.1,36.6,13,54,20.8l-2.3,5.1Z" fill="#f0c419"/><path d="M51.6,25.8l4.6-10.2,4.1,1.8L55.7,27.6Z" fill="#bdc3c7"/><path d="M33.9,7.9,31,14.4,26.9,9.8A1.116,1.116,0,0,1,27,8.2a.908.908,0,0,1,.7-.3h6.2Z" fill="#464f5d"/><path d="M38.8,7.9,34.3,18,31,14.4l2.9-6.5h4.9Z" fill="#f9eab0"/><path d="M64.1,25.3a5.6,5.6,0,0,1-7.4,2.8h0l-1-.5,4.6-10.2,1,.5a5.535,5.535,0,0,1,2.8,7.4Z" fill="#ff5364"/><circle cx="16.8" cy="16.8" r="16.8" transform="translate(31.1 31.3)" fill="#f3d55b"/><path d="M47.9,58.2c-6.4,0-8.2-6.7-5.6-6.7a1.11,1.11,0,0,1,1.1,1.1c0,1.9,2,3.4,4.5,3.4s4.5-1.5,4.5-3.4c0-1.8-2-3.4-4.5-3.4-3.7,0-6.7-2.5-6.7-5.6s3-5.6,6.7-5.6c6.4,0,8.2,6.7,5.6,6.7a1.11,1.11,0,0,1-1.1-1.1c0-1.9-2-3.4-4.5-3.4s-4.5,1.5-4.5,3.4c0,1.8,2,3.4,4.5,3.4,3.7,0,6.7,2.5,6.7,5.6S51.6,58.2,47.9,58.2Z" fill="#f29c1f"/><path d="M47.9,60.4a1.11,1.11,0,0,1-1.1-1.1V36.9a1.1,1.1,0,0,1,2.2,0h0V59.3A1.11,1.11,0,0,1,47.9,60.4Z" fill="#f29c1f"/><path d="M47.9,66A17.9,17.9,0,1,1,65.8,48.1h0A17.882,17.882,0,0,1,47.9,66Zm0-33.6A15.7,15.7,0,1,0,63.6,48.1h0A15.727,15.727,0,0,0,47.9,32.4Z" fill="#f0c419"/><path d="M36.7,54.5a1.2,1.2,0,0,1-1-.7,13.7,13.7,0,0,1,.6-12.6,1.1,1.1,0,1,1,1.9,1.1h0a11.454,11.454,0,0,0-.5,10.5,1.136,1.136,0,0,1-.5,1.5.764.764,0,0,1-.5.2Z" fill="#f29c1f"/><path d="M59.1,54.5A1.11,1.11,0,0,1,58,53.4a.9.9,0,0,1,.1-.5,11.454,11.454,0,0,0-.5-10.5,1.1,1.1,0,0,1,1.9-1.1h0a13.979,13.979,0,0,1,.6,12.6,1.326,1.326,0,0,1-1,.6Z" fill="#f29c1f"/></g></svg>