<svg xmlns="http://www.w3.org/2000/svg" xmlns:xlink="http://www.w3.org/1999/xlink" width="1047" height="1148" viewBox="0 0 1047 1148"><defs><style>.a,.f{fill:#fff;}.b{clip-path:url(#a);}.c{opacity:0.09;}.d{fill:#2f2d51;}.e{fill:#0f003b;}.f{stroke:#fff;}.g{stroke:none;}.h{fill:none;}.i{filter:url(#h);}.j{filter:url(#f);}.k{filter:url(#d);}.l{filter:url(#b);}</style><clipPath id="a"><rect class="a" width="1047" height="1148" transform="translate(873)"/></clipPath><filter id="b" x="279" y="479" width="889" height="608" filterUnits="userSpaceOnUse"><feOffset dy="3" input="SourceAlpha"/><feGaussianBlur stdDeviation="3" result="c"/><feFlood flood-opacity="0.161"/><feComposite operator="in" in2="c"/><feComposite in="SourceGraphic"/></filter><filter id="d" x="279" y="420" width="889" height="77" filterUnits="userSpaceOnUse"><feOffset dy="3" input="SourceAlpha"/><feGaussianBlur stdDeviation="3" result="e"/><feFlood flood-opacity="0.161"/><feComposite operator="in" in2="e"/><feComposite in="SourceGraphic"/></filter><filter id="f" x="92" y="837" width="402" height="206" filterUnits="userSpaceOnUse"><feOffset dy="3" input="SourceAlpha"/><feGaussianBlur stdDeviation="3" result="g"/><feFlood flood-opacity="0.161"/><feComposite operator="in" in2="g"/><feComposite in="SourceGraphic"/></filter><filter id="h" x="92" y="730" width="402" height="102" filterUnits="userSpaceOnUse"><feOffset dy="3" input="SourceAlpha"/><feGaussianBlur stdDeviation="3" result="i"/><feFlood flood-opacity="0.161"/><feComposite operator="in" in2="i"/><feComposite in="SourceGraphic"/></filter></defs><g class="b" transform="translate(-873)"><g class="c" transform="matrix(0.995, -0.105, 0.105, 0.995, -303.731, 517.696)"><ellipse class="a" cx="417.5" cy="415.5" rx="417.5" ry="415.5" transform="translate(746 187)"/><ellipse class="d" cx="219.5" cy="218.5" rx="219.5" ry="218.5" transform="translate(933 384)"/></g><g transform="translate(7 -48)"><g class="l" transform="matrix(1, 0, 0, 1, 866, 48)"><path class="a" d="M0,0H871a0,0,0,0,1,0,0V573a17,17,0,0,1-17,17H17A17,17,0,0,1,0,573V0A0,0,0,0,1,0,0Z" transform="translate(288 485)"/></g><g class="k" transform="matrix(1, 0, 0, 1, 866, 48)"><path class="e" d="M13,0H858a13,13,0,0,1,13,13V59a0,0,0,0,1,0,0H0a0,0,0,0,1,0,0V13A13,13,0,0,1,13,0Z" transform="translate(288 426)"/></g><g class="f" transform="translate(1180 497)"><circle class="g" cx="6" cy="6" r="6"/><circle class="h" cx="6" cy="6" r="5.5"/></g><g class="f" transform="translate(1201 497)"><circle class="g" cx="6" cy="6" r="6"/><circle class="h" cx="6" cy="6" r="5.5"/></g><g class="f" transform="translate(1222 497)"><ellipse class="g" cx="6.5" cy="6" rx="6.5" ry="6"/><ellipse class="h" cx="6.5" cy="6" rx="6" ry="5.5"/></g></g><g class="j" transform="matrix(1, 0, 0, 1, 873, 0)"><rect class="a" width="384" height="188" rx="16" transform="translate(101 843)"/></g><g class="c" transform="matrix(0.995, -0.105, 0.105, 0.995, 954.703, -319.321)"><g transform="translate(746 187)"><ellipse class="a" cx="205.256" cy="204.272" rx="205.256" ry="204.272"/></g><ellipse class="d" cx="107.913" cy="107.421" rx="107.913" ry="107.421" transform="translate(837.935 283.851)"/></g><g class="i" transform="matrix(1, 0, 0, 1, 873, 0)"><rect class="a" width="384" height="84" rx="16" transform="translate(101 736)"/></g></g></svg>