<svg xmlns="http://www.w3.org/2000/svg" width="15.028" height="15.028" viewBox="0 0 15.028 15.028"><defs><style>.a{fill:#4b5660;}</style></defs><path class="a" d="M144.65,35.691a.777.777,0,0,0,1.1,0l2.931-2.931a.777.777,0,1,0-1.1-1.1l-1.6,1.6V24.777a.777.777,0,0,0-1.555,0v8.488l-1.6-1.6a.777.777,0,1,0-1.1,1.1Z" transform="translate(-137.685 -24)"/><path class="a" d="M38.251,232a.777.777,0,0,0-.777.777v5.96H25.555v-5.96a.777.777,0,1,0-1.555,0V239a1.3,1.3,0,0,0,1.3,1.3H37.733a1.3,1.3,0,0,0,1.3-1.3v-6.219A.777.777,0,0,0,38.251,232Z" transform="translate(-24 -225.263)"/></svg>