<svg xmlns="http://www.w3.org/2000/svg" width="14.04" height="14.964" viewBox="0 0 14.04 14.964"><defs><style>.a{fill:#2f2d51;}</style></defs><path class="a" d="M0,13.561a1.457,1.457,0,0,0,1.5,1.4H12.536a1.457,1.457,0,0,0,1.5-1.4V5.611H0ZM2.006,7.949a.487.487,0,0,1,.5-.468H5.516a.487.487,0,0,1,.5.468v2.806a.487.487,0,0,1-.5.468H2.507a.487.487,0,0,1-.5-.468ZM12.536,1.87h-1.5V.468A.487.487,0,0,0,10.53,0h-1a.487.487,0,0,0-.5.468v1.4H5.014V.468A.487.487,0,0,0,4.513,0h-1a.487.487,0,0,0-.5.468v1.4H1.5A1.457,1.457,0,0,0,0,3.273v1.4H14.04v-1.4A1.457,1.457,0,0,0,12.536,1.87Z"/></svg>