<svg xmlns="http://www.w3.org/2000/svg" width="61.616" height="66" viewBox="0 0 61.616 66"><g transform="translate(-0.362 4.414)"><path d="M329.96,272H292.2a4.208,4.208,0,0,0-4.2,4.2v27.275h46.156V276.2A4.208,4.208,0,0,0,329.96,272Z" transform="translate(-281.344 -267.058)" fill="#0a789b"/><path d="M322.743,408.785H264L270.294,392H316.45Z" transform="translate(-263.638 -355.59)" fill="#acabb1"/><path d="M322.743,456v6.294a2.1,2.1,0,0,1-2.1,2.1H266.1a2.1,2.1,0,0,1-2.1-2.1V456Z" transform="translate(-263.638 -402.806)" fill="#898890"/><path d="M356.98,438.294H336L338.1,432h16.784Z" transform="translate(-316.757 -385.1)" fill="#c6c5ca"/><path d="M406.219,313.2v20.666H385.68A49.466,49.466,0,0,0,406.219,313.2Z" transform="translate(-353.408 -297.454)" fill="#05303d"/><g transform="translate(4.5 -3.293)"><path d="M68.27,64.843,59.725,56.3a16.414,16.414,0,0,1-4.939,4.939l8.546,8.546a3.493,3.493,0,1,0,4.939-4.939" transform="translate(-32.048 -33.559)" fill="#fff"/><path d="M53.4,40.951A13.966,13.966,0,1,0,39.438,54.916,13.967,13.967,0,0,0,53.4,40.951M39.437,51.426" transform="translate(-25.471 -26.983)" fill="#f3d55b" stroke="#f0c419" stroke-width="2"/><path d="M39.456,46.014c.259-.26.512-.517.766-.773l3.289-3.288,2.121-2.124a1.37,1.37,0,0,1,2,1.874c-.509.521-1.03,1.032-1.544,1.548l-3.975,3.976L40.436,48.9a1.361,1.361,0,0,1-1.971,0c-.94-.937-1.883-1.872-2.815-2.818a1.37,1.37,0,0,1,.766-2.312,1.31,1.31,0,0,1,1.188.391q.894.892,1.786,1.785l.069.065" transform="translate(-27.665 -29.766)" fill="#08475e"/></g><rect width="18.882" height="27.811" rx="1" transform="translate(43.096 -4.414)" fill="#2980ba"/><path d="M1.608,0H12.259a1.466,1.466,0,0,1,1.608,1.261V21.629a1.466,1.466,0,0,1-1.608,1.26H1.608A1.466,1.466,0,0,1,0,21.629V1.261A1.466,1.466,0,0,1,1.608,0Z" transform="translate(45.603 -1.54)" fill="#0a789b"/><g transform="translate(47.388 1.332)"><circle cx="1.716" cy="1.716" r="1.716" transform="translate(0 0)" fill="#f3d55b"/><circle cx="1.716" cy="1.716" r="1.716" transform="translate(0 6.009)" fill="#f3d55b"/><circle cx="1.716" cy="1.716" r="1.716" transform="translate(0 12.016)" fill="#f3d55b"/><circle cx="1.716" cy="1.716" r="1.716" transform="translate(6.867 0)" fill="#f3d55b"/><circle cx="1.716" cy="1.716" r="1.716" transform="translate(6.867 6.009)" fill="#f3d55b"/><circle cx="1.716" cy="1.716" r="1.716" transform="translate(6.867 12.016)" fill="#f3d55b"/></g></g></svg>