<svg xmlns="http://www.w3.org/2000/svg" xmlns:xlink="http://www.w3.org/1999/xlink" width="25" height="24" viewBox="0 0 25 24"><defs><style>.a{fill:#474186;}.b{clip-path:url(#a);}</style><clipPath id="a"><path class="a" d="M17.85,16H3.15A3.081,3.081,0,0,1,0,13V3A3.081,3.081,0,0,1,3.15,0h14.7A3.081,3.081,0,0,1,21,3V13A3.081,3.081,0,0,1,17.85,16ZM2.1,3.25V13a1.027,1.027,0,0,0,1.05,1h14.7a1.027,1.027,0,0,0,1.05-1V3.25L11.13,8.8a1.094,1.094,0,0,1-1.261,0ZM3.85,2,10.5,6.75,17.15,2Z"/></clipPath></defs><g transform="translate(2 4)"><path class="a" d="M17.85,16H3.15A3.081,3.081,0,0,1,0,13V3A3.081,3.081,0,0,1,3.15,0h14.7A3.081,3.081,0,0,1,21,3V13A3.081,3.081,0,0,1,17.85,16ZM2.1,3.25V13a1.027,1.027,0,0,0,1.05,1h14.7a1.027,1.027,0,0,0,1.05-1V3.25L11.13,8.8a1.094,1.094,0,0,1-1.261,0ZM3.85,2,10.5,6.75,17.15,2Z"/></g></svg>