<svg xmlns="http://www.w3.org/2000/svg" width="16.282" height="21.709" viewBox="0 0 16.282 21.709"><defs><style>.a{fill:#fafafa;}</style></defs><path class="a" d="M12.211,10.854H4.07v2.714h8.141Zm3.774-6.4L11.834.3a1.017,1.017,0,0,0-.721-.3h-.259V5.427h5.427V5.169A1.014,1.014,0,0,0,15.985,4.452ZM9.5,5.766V0H1.018A1.015,1.015,0,0,0,0,1.018V20.691a1.015,1.015,0,0,0,1.018,1.018H15.264a1.015,1.015,0,0,0,1.018-1.018V6.784H10.515A1.021,1.021,0,0,1,9.5,5.766ZM2.714,3.053a.339.339,0,0,1,.339-.339H6.445a.339.339,0,0,1,.339.339v.678a.339.339,0,0,1-.339.339H3.053a.339.339,0,0,1-.339-.339Zm0,2.714a.339.339,0,0,1,.339-.339H6.445a.339.339,0,0,1,.339.339v.678a.339.339,0,0,1-.339.339H3.053a.339.339,0,0,1-.339-.339Zm10.854,12.89a.339.339,0,0,1-.339.339H9.837a.339.339,0,0,1-.339-.339v-.678a.339.339,0,0,1,.339-.339h3.392a.339.339,0,0,1,.339.339Zm0-8.48v4.07a.678.678,0,0,1-.678.678h-9.5a.678.678,0,0,1-.678-.678v-4.07A.678.678,0,0,1,3.392,9.5h9.5A.678.678,0,0,1,13.568,10.176Z"/></svg>