<svg xmlns="http://www.w3.org/2000/svg" width="13.624" height="13.726" viewBox="0 0 13.624 13.726"><defs><style>.a{fill:#4b5660;}</style></defs><path class="a" d="M24.879,33.226a.668.668,0,0,1-.258-.052.675.675,0,0,1-.417-.623V24.934l-4.282-4.282A.675.675,0,0,1,20.4,19.5H32.674a.675.675,0,0,1,.477,1.153l-4.226,4.223v4.3a.675.675,0,0,1-.2.477l-3.371,3.373A.674.674,0,0,1,24.879,33.226ZM22.029,20.85l3.328,3.328a.675.675,0,0,1,.2.477V30.92L27.575,28.9V24.6a.675.675,0,0,1,.2-.477l3.271-3.269Z" transform="translate(-19.725 -19.5)"/></svg>