<svg xmlns="http://www.w3.org/2000/svg" width="66" height="66.1" viewBox="0 0 66 66.1"><path d="M46.7,2.7V24.9H0V3.2C0,1.2,1.2,0,2.7,0H44.1a2.606,2.606,0,0,1,2.6,2.7Z" fill="#50758d"/><path d="M46.7,24.8V57.7A2.689,2.689,0,0,1,44,60.4H2.7A2.791,2.791,0,0,1,0,58.3V24.8Z" fill="#50758d"/><path d="M6.6,17.7V7.2A1.9,1.9,0,0,1,8.5,5.3H40.9a1.9,1.9,0,0,1,1.9,1.9h0V17.7a1.9,1.9,0,0,1-1.9,1.9H8.5a2.043,2.043,0,0,1-1.9-1.9Z" fill="#2edffc"/><path d="M11.2,19.5H8.5a1.9,1.9,0,0,1-1.9-1.9V7.2A1.9,1.9,0,0,1,8.5,5.3h2.7A1.9,1.9,0,0,0,9.3,7.2V17.7a1.817,1.817,0,0,0,1.9,1.8Z" fill="#27bdf3"/><path d="M42.6,32V42.6h-18V30.1H40.7A1.9,1.9,0,0,1,42.6,32Z" fill="#f5f5f5"/><path d="M24.6,30.1V42.6H6.6V32.3a1.917,1.917,0,0,1,1.7-2.1h.1Z" fill="#f5f5f5"/><path d="M24.6,42.6V55.1H8.5a2.019,2.019,0,0,1-1.9-1.6V42.6Z" fill="#f5f5f5"/><path d="M42.6,42.6V53.2a1.9,1.9,0,0,1-1.9,1.9H24.6V42.6Z" fill="#f5f5f5"/><path d="M40.8,29.1H8.5a2.989,2.989,0,0,0-2.9,3V53.4a2.929,2.929,0,0,0,2.9,2.7H40.8a2.9,2.9,0,0,0,2.9-2.9V32A3.118,3.118,0,0,0,40.8,29.1Zm.8,2.9v9.6h-16V31.1H40.7A.9.9,0,0,1,41.6,32Zm-34,.3c0-.7.3-1.1.9-1.1H23.6V41.7H7.6Zm0,21.2V43.6h16V54.1H8.5a.961.961,0,0,1-.9-.6Zm34-.3a.9.9,0,0,1-.9.9H25.6V43.6h16Z" fill="#e6e6e6"/><path d="M19.9,49.9H12.7a1,1,0,0,1,0-2h7.2a.945.945,0,0,1,1,1A1,1,0,0,1,19.9,49.9Z" fill="#2b597f"/><path d="M19.3,35.4H17.4V33.5a1,1,0,0,0-2,0v1.9H13.5a1,1,0,0,0,0,2h1.9v1.9a1,1,0,0,0,2,0V37.4h1.9a.945.945,0,0,0,1-1,1,1,0,0,0-1-1Z" fill="#2b597f"/><path d="M34.4,36.4,35.8,35a.99.99,0,0,0-1.4-1.4h0L33,35l-1.4-1.4A.99.99,0,0,0,30.2,35l1.4,1.4-1.4,1.4a.99.99,0,0,0,1.4,1.4L33,37.8l1.4,1.4a.99.99,0,0,0,1.4-1.4Z" fill="#2b597f"/><path d="M37.6,16.7H35.7a2.263,2.263,0,0,1-2.3-2.3V10.6a2.263,2.263,0,0,1,2.3-2.3h1.9a2.263,2.263,0,0,1,2.3,2.3v3.8A2.326,2.326,0,0,1,37.6,16.7Zm-1.9-6.5a.265.265,0,0,0-.3.3v3.8a.265.265,0,0,0,.3.3h1.9a.265.265,0,0,0,.3-.3V10.5a.265.265,0,0,0-.3-.3Z" fill="#2b597f"/><path d="M46.7,24.8v-3H4.6a1.324,1.324,0,0,1-1.3-1.3h0V3.2C3.3,1.2,4.5,0,6,0H2.7C1.2,0,0,1.2,0,3.2V58.3a2.524,2.524,0,0,0,2.7,2.1H6a2.791,2.791,0,0,1-2.7-2.1V26.2a1.324,1.324,0,0,1,1.3-1.3h0Z" fill="#2b597f"/><ellipse cx="13.7" cy="3.1" rx="13.7" ry="3.1" transform="translate(38.6 34.7)" fill="#fad207"/><path d="M66,56.7V63c0,2-6.1,3.1-13.7,3.1S38.6,65,38.6,63V56.7c0,2,6.1,3.1,13.7,3.1S66,58.7,66,56.7Z" fill="#fad207"/><path d="M66,50.4v6.3c0,2-6.1,3.1-13.7,3.1s-13.7-1.1-13.7-3.1V50.4c0,2,6.1,3.1,13.7,3.1S66,52.4,66,50.4Z" fill="#faa515"/><path d="M66,44.1v6.3c0,2-6.1,3.1-13.7,3.1s-13.7-1.1-13.7-3.1V44.1c0,2,6.1,3.1,13.7,3.1S66,46.1,66,44.1Z" fill="#fad207"/><path d="M66,37.8v6.3c0,2-6.1,3.1-13.7,3.1s-13.7-1.1-13.7-3.1V37.8c0,2,6.1,3.1,13.7,3.1S66,39.8,66,37.8Z" fill="#faa515"/><path d="M30.8,52.1a1,1,0,0,1-1-1,.908.908,0,0,1,.3-.7l4.5-4.5A.99.99,0,1,1,36,47.3h0l-4.5,4.5a1.08,1.08,0,0,1-.7.3Z" fill="#2b597f"/><circle cx="1" cy="1" r="1" transform="translate(30.1 45.3)" fill="#2b597f"/><circle cx="1" cy="1" r="1" transform="translate(34.1 50.4)" fill="#2b597f"/></svg>