<svg xmlns="http://www.w3.org/2000/svg" width="78.8" height="66.001" viewBox="0 0 78.8 66.001"><g transform="translate(0 0.001)"><path d="M45.6,52.7V66H0V52.7A11.372,11.372,0,0,1,8,41.8l7.7-2.4-.9,7.2,8-3.4,8,3.4-.9-7.2,7.7,2.4h0a11.387,11.387,0,0,1,8,10.5v.4Z" fill="#0a789b"/><path d="M60.4,35.2H39.9a2.263,2.263,0,0,0-2.3,2.3V52.3H62.7V37.5A2.263,2.263,0,0,0,60.4,35.2Z" fill="#0a789b"/><path d="M66.1,61.4H34.2l3.4-9.1H62.7Z" fill="#acabb1"/><path d="M27.4,32.9v5.7l-4.6,4.6-4.6-4.6V32.9Z" fill="#ffc477"/><path d="M66.1,61.4v3.4A1.11,1.11,0,0,1,65,65.9H35.3a1.11,1.11,0,0,1-1.1-1.1V61.4Z" fill="#898890"/><path d="M55.8,61.4H44.5L45.6,58h9.1Z" fill="#c6c5ca"/><path d="M35.3,15.8a2.3,2.3,0,0,1,0,4.6,2.016,2.016,0,0,1-1.1-.3V16.2A2.1,2.1,0,0,1,35.3,15.8Z" fill="#ffb655"/><path d="M11.4,17v3.1a2.264,2.264,0,1,1-2.3-3.9,2.354,2.354,0,0,1,2.3,0Z" fill="#ffb655"/><path d="M29.9,39.4l.9,7.2-8-3.4,4.6-4.6Z" fill="#e6e7e8"/><path d="M27.4,32.9v2.5a11.1,11.1,0,0,1-9.1,0V32.9Z" fill="#ffb655"/><path d="M34.2,20.1v2.6a11.4,11.4,0,0,1-22.8,0V17s5.7-5.7,10.3-6.8c0,0,1.1,3.4,3.4,4.6a4.311,4.311,0,0,1,3.4-2.3,7.842,7.842,0,0,0,5.7,4.6Z" fill="#ffc06c"/><path d="M22.8,43.2l-8,3.4.9-7.2,2.5-.8Z" fill="#e6e7e8"/><path d="M34.2,16.2V17a7.842,7.842,0,0,1-5.7-4.6,4.029,4.029,0,0,0-3.4,2.3c-2.3-1.1-3.4-4.6-3.4-4.6C17.1,11.3,11.4,17,11.4,17V11.3a11.4,11.4,0,0,1,22.8,0Z" fill="#57565c"/><path d="M62.7,41.1V52.3H51.5A26.32,26.32,0,0,0,62.7,41.1Z" fill="#05303d"/><path d="M16,18.1h2.3v2.3H16Z" fill="#ee8700"/><path d="M27.4,18.1h2.3v2.3H27.4Z" fill="#ee8700"/><path d="M22.8,29.5a4.588,4.588,0,0,1-4.6-4.6h2.3a2.3,2.3,0,1,0,4.6,0h2.3a4.588,4.588,0,0,1-4.6,4.6Z" fill="#ee8700"/><path d="M6.8,52.3H9.1V66H6.8Z" fill="#08475e"/><g transform="translate(43.371 41.147)"><path d="M5.6.9H7.9V3.2H5.6Z" fill="#3d9ae2"/><path d="M10.2.9h2.3V3.2H10.2Z" fill="#3d9ae2"/><path d="M1.1.9H3.4V3.2H1.1Z" fill="#3d9ae2"/></g><path d="M78.8.7a.55.55,0,0,1-.3.5,5.933,5.933,0,0,0-2.6,4.9c0,28.9.2,18-1.2,47.9a5.762,5.762,0,0,1-8.1,1.2,5.858,5.858,0,0,1-2.3-3.8.974.974,0,0,0-1-.8H52.7V6A5.8,5.8,0,0,1,58.5.2H78.3a.536.536,0,0,1,.5.5Z" fill="#08475e"/><path d="M72.3,56.3H46.1A6.527,6.527,0,0,1,39.7,51a1.033,1.033,0,0,1,.9-1.2H64.8a1.164,1.164,0,0,1,1.1,1A6.391,6.391,0,0,0,72.3,56.3Z" fill="#0a789b"/><path d="M41.7,5.9h22a1,1,0,0,1,1,1V46.4a1,1,0,0,1-1,1h-22a1,1,0,0,1-1-1V6.9A.945.945,0,0,1,41.7,5.9Z" fill="#2980ba"/><path d="M45.9,8.2H59.5a2.006,2.006,0,0,1,2,2h0V43.3a2.006,2.006,0,0,1-2,2H45.9a2.006,2.006,0,0,1-2-2V10.2A1.944,1.944,0,0,1,45.9,8.2Z" fill="#0a789b"/><path d="M47.2,12.5H58.1a2.22,2.22,0,0,1,2.2,2.2h0a2.22,2.22,0,0,1-2.2,2.2H47.2A2.22,2.22,0,0,1,45,14.7h0A2.22,2.22,0,0,1,47.2,12.5Z" fill="#65ddb9"/><g transform="translate(45.004 0.625)"><circle cx="2.2" cy="2.2" r="2.2" transform="translate(1.1 20.7)" fill="#f3d55b"/><circle cx="2.2" cy="2.2" r="2.2" transform="translate(1.1 28.3)" fill="#f3d55b"/><circle cx="2.2" cy="2.2" r="2.2" transform="translate(1.1 36)" fill="#f3d55b"/><circle cx="2.2" cy="2.2" r="2.2" transform="translate(9.9 20.7)" fill="#f3d55b"/><circle cx="2.2" cy="2.2" r="2.2" transform="translate(9.9 28.3)" fill="#f3d55b"/><circle cx="2.2" cy="2.2" r="2.2" transform="translate(9.9 36)" fill="#f3d55b"/></g></g></svg>