<svg xmlns="http://www.w3.org/2000/svg" width="280.895" height="275.567" viewBox="0 0 280.895 275.567"><defs><style>.a,.e,.i,.k,.n,.t,.x,.y{fill:none;}.a{stroke:#e5e5e5;stroke-width:2.47px;}.a,.e,.i,.k{stroke-linecap:round;}.a,.e,.i,.k,.v,.w{stroke-linejoin:round;}.b{fill:#fe697d;}.c{fill:#fefddb;}.d{fill:#f3c2b9;}.e,.i,.t,.v{stroke:#fff;}.e,.y{stroke-width:3px;}.f,.g{fill:#6562cf;}.f{fill-rule:evenodd;}.h{fill:#c0c1ff;}.i{stroke-width:3.06px;}.j,.m,.w{fill:#fff;}.j{stroke:#c0c1ff;}.j,.t,.x{stroke-width:4px;}.k{stroke:#6562cf;stroke-width:2px;}.l{fill:#f5ad54;}.m,.n{stroke:#d8baa3;stroke-width:6px;}.m,.n,.t,.x,.y{stroke-miterlimit:10;}.o{fill:#b65a18;}.p{fill:#642648;}.q{fill:#c36f0b;}.r{fill:#722d54;}.s{fill:#3f4d90;}.u,.v{fill:#f0e1d4;}.v,.w{stroke-width:5px;}.w{stroke:#3f4d79;}.x,.y{stroke:#722d54;}</style></defs><g transform="translate(-1310.597 -1835.834)"><g transform="translate(1460.191 1845.834)"><circle class="a" cx="53.996" cy="53.996" r="53.996" transform="translate(19.767 26.73)"/><rect class="b" width="73.565" height="5.717" transform="translate(22.649 151.676)"/><path class="c" d="M1489.113,736.109l-4.951-2.859v5.717Z" transform="translate(-1388.005 -581.575)"/><path class="b" d="M1492.272,737.941v2.146l1.86-1.075Z" transform="translate(-1393.024 -584.477)"/><path class="d" d="M1379.207,522.246h-77.781c-6.526,0-11.816-4.688-11.816-10.469V442.871c0-5.782,5.29-10.469,11.816-10.469h77.781c6.526,0,11.816,4.687,11.816,10.469v68.916C1391.017,517.565,1385.728,522.246,1379.207,522.246Z" transform="translate(-1289.61 -375.4)"/><path class="e" d="M1289.64,540.171l19.581-19.58,7.864,7.863,25.538-25.538,11.244,11.244,25.729-25.729,11.081,11.08" transform="translate(-1289.629 -410.073)"/><path class="f" d="M1339.97,558.974a5.48,5.48,0,1,1,5.482,5.479h0A5.48,5.48,0,0,1,1339.97,558.974Z" transform="translate(-1260.774 -426.354)"/><path class="g" d="M34.118,0,24.974,34.118,0,9.144Z" transform="matrix(-0.391, -0.921, 0.921, -0.391, 87.488, 103.095)"/><rect class="h" width="37.873" height="28.5" rx="7" transform="translate(67.836)"/><line class="i" x2="15.693" transform="translate(78.924 10.692)"/><line class="i" x2="15.693" transform="translate(78.924 14.252)"/><line class="i" x2="15.693" transform="translate(78.924 17.808)"/><path class="h" d="M1529.542,335.858l4.753-8.233h-9.506Z" transform="translate(-1442.77 -299.125)"/><path class="j" d="M1440.515,373.563,1422,356.235l-22.954,24.524,18.513,17.328c2.63,2.458,9.91-1.037,16.238-7.806S1443.126,376.025,1440.515,373.563Z" transform="translate(-1395.372 -329.054)"/><ellipse class="k" cx="10.294" cy="4.022" rx="10.294" ry="4.022" transform="translate(37.432 75.229) rotate(-46.89)"/><rect class="l" width="22.146" height="22.146" transform="translate(101.406 53.703) rotate(-62.34)"/></g><g transform="translate(1310.597 1835.834)"><g transform="translate(0 0)"><g transform="translate(0 0)"><g transform="translate(15.988 169.141)"><path class="m" d="M86.264,817.11h59.423a8.1,8.1,0,0,1,8.1,8.1h0a8.1,8.1,0,0,1-8.1,8.1H86.264a8.1,8.1,0,0,1-8.1-8.1h0A8.1,8.1,0,0,1,86.264,817.11Z" transform="translate(-78.16 -817.11)"/><path class="n" d="M100.107,983.567h0a.5.5,0,0,1-.5-.485.49.49,0,0,1,0-.069l12.2-86.662h39.739l-50.991,86.969A.509.509,0,0,1,100.107,983.567Z" transform="translate(-95.217 -880.142)"/><path class="n" d="M213.709,983.567h0a.49.49,0,0,0,.5-.56L199.979,896.35H160.24l53.035,86.977A.51.51,0,0,0,213.709,983.567Z" transform="translate(-143.451 -880.142)"/></g><g transform="translate(23.061 123.9)"><g transform="translate(73.478 116.054)"><path class="o" d="M486.07,1163.3a60.986,60.986,0,0,0,12.545.313c-1.366,5.273-1.994,10.315-2.988,14.795-.642,2.884,3.273,6.789,4.459,9.614a.948.948,0,0,0-.092-.043c-5.429-.865-12.7,4.269-11.95-3.745C488.762,1176.211,486.956,1170.326,486.07,1163.3Z" transform="translate(-483.184 -1163.3)"/><path class="p" d="M476.983,1236.8c-1.868,0-5.306,3.373-5.005,8.773a42.336,42.336,0,0,0,1.571,9.409h21.784c1.023-7.718-6.564-8.55-6.564-8.55-5.431-.865-12.426,4.269-11.678-3.743Z" transform="translate(-471.96 -1221.766)"/></g><g transform="translate(60.589 116.258)"><path class="q" d="M412.07,1164.3a80.127,80.127,0,0,0,13.977.108c-1.366,5.273-2.17,14.795-2.17,14.795-.642,2.884,3.273,6.789,4.459,9.614a.966.966,0,0,0-.092-.043c-5.429-.865-12.7,4.269-11.95-3.745C417.012,1177.006,412.07,1164.3,412.07,1164.3Z" transform="translate(-411.431 -1164.3)"/><path class="r" d="M413.565,1236.8c-1.868,0-4.9,3.373-4.6,8.773a42.334,42.334,0,0,0,1.571,9.409h21.784c1.023-7.718-6.564-8.55-6.564-8.55-5.431-.865-12.426,4.269-11.678-3.743Z" transform="translate(-408.948 -1221.97)"/></g><path class="s" d="M130.193,595.93s-18.718,22.654-17.386,37.761,16.849,19.575,45.409,19.242c0,0,.837,22.662,15.668,59.319a49.27,49.27,0,0,0,15.341,0,62.948,62.948,0,0,0,12.477-.035s11.34-74.117,9.961-81.635c-1.827-9.961-37.923-18.947-47.267-21.105l-7.812-13.547S140.9,597.922,130.193,595.93Z" transform="translate(-112.738 -595.93)"/><path class="t" d="M300.64,705s29.937,7.854,33.593,17.483,3.841,77.347,3.841,77.347" transform="translate(-262.205 -682.69)"/></g><g transform="translate(17.098 57.531)"><path class="u" d="M143.121,315.113s-1.162,16.186-9.8,28.387c0,0-14.114,2.408-26.387,0,0,0-12.16-12.788-15.646-26.648,0,0-11.579-23.486-6.341-27.471s18.272-10.841,18.272-10.841l26.511,1.3c3.273,1.988,10.25,5.238,17.223,8.89Z" transform="translate(-83.589 -278.54)"/><circle class="v" cx="1.913" cy="1.913" r="1.913" transform="translate(36.135 27.375)"/><circle class="v" cx="1.913" cy="1.913" r="1.913" transform="translate(36.135 35.115)"/><circle class="v" cx="1.913" cy="1.913" r="1.913" transform="translate(36.135 42.853)"/></g><g transform="translate(50.401 67.804)"><path class="u" d="M378.449,328.35c6.971,3.653,27.483,50.666,18.947,55.637-17.726,10.336-22.766-29.25-22.766-29.25Z" transform="translate(-348.401 -328.35)"/><path class="o" d="M434.254,549.967c2.393,1.023,8.569-.861,15.431-5.357s-.922-7.464-.922-7.464-9.123-3.661-14.689-1.023S429.67,547.993,434.254,549.967Z" transform="translate(-392.717 -492.863)"/><path class="w" d="M324.983,495.39H287.514L246.4,522.3h37.467Z" transform="translate(-246.4 -461.223)"/><path class="q" d="M525.582,530.056c0-.978-6.214-6.73-8.591-4.557-1,.908-1.053,8.708-.961,10.115C516.32,540.093,525.531,535.072,525.582,530.056Z" transform="translate(-460.853 -484.786)"/></g><g transform="translate(0 67.325)"><path class="u" d="M18.44,327.148C16.311,328.838-6.3,363.255,1.7,379.1c9.025,17.89,45.688,3.035,45.688,3.035s-4.651-1.432-1.663-7.409c0,0-15.169-8.071-27.37-5.664,0,0,9.462-15.689,10.458-21.831S26.078,321.089,18.44,327.148Z" transform="translate(0.003 -326.019)"/><line class="x" x2="6.681" y2="14.922" transform="translate(55.318 38.238)"/><g transform="translate(44.337 45.513)"><path class="q" d="M218.16,551.245s6.723-3.833,9.409-2.4c2.943,1.571,6.474,6.546,6.8,7.382a6.075,6.075,0,0,1,.18,2.6c-.051.9-6.136.845-7.306.777s-7.45.677-8.546-.4A5.709,5.709,0,0,1,218.16,551.245Z" transform="translate(-216.756 -548.526)"/><path class="o" d="M268,560.885c1.178.067,6.558.135,7.243-.5,1.36-1.262.581-3.148-.1-3.886-.624-.679-3.944-4.8-6.813-6.365,0,0,3.328,5.791-.329,10.761" transform="translate(-257.518 -549.802)"/></g></g><g transform="translate(14.908)"><path class="r" d="M101.732,13.862s-2.988-4.815,0-7.3S105.95.026,111.36,0c5.588-.027,7.818,4.33,10.377,3.9,3.477-.583,5.915-1.7,10.332.626,3.535,1.865,3.682,8.859,7.266,8.505,2.851-.28,6.018-.1,7.636,3.068,1.227,2.4-.082,8.881,1.743,10.624s6.136,2.311,6.476,6.805c.45,6.073-5.891,6.967-4.234,11.788,2.18,6.341-.9,10.321-6.308,11.046-3.807.505-10.5-5.155-12.948-1.246-2.093,3.332-6.476,4.815-11.864,2.659s-8.716-1.5-12.036-.084-7.388,3.4-10.127.994-6.044-2.475-9.691-.968c-5.06,2.093-10.491-1.348-9.818-5.92.558-3.778-4.627-4.255-5.228-8.55-.785-5.611,7.47-7.055,5.063-9.462s-2.322-9.446,4.811-10.379c6.766-.88,5.318-5.1,7.227-7.977A8.048,8.048,0,0,1,101.732,13.862Z" transform="translate(-72.881 0.001)"/><path class="y" d="M79.31,75.878C77.06,73.33,77.778,65.487,84.954,65c6.807-.462,5.617-4.76,7.7-7.511,1.755-2.313,7.638-5.075,13.206-.243" transform="translate(-77.093 -43.413)"/><g transform="translate(21.806 34.546)"><path class="q" d="M187.5,168.9c-.051,4.3.217,16.141-8.01,22.418,0,0,14.772,7.419,18.107,23.854,0,0,2.346-17.323,8.4-22.553,0,0-7.18-4.071-5.6-23.727Z" transform="translate(-179.49 -168.89)"/><path class="o" d="M232.829,185.952A5.084,5.084,0,0,1,229.4,187.4c-5.183,0-10.344-7.9-10.841-16.337.016-.83.016-1.555.025-2.138h12.9C230.835,176.922,231.643,182.34,232.829,185.952Z" transform="translate(-210.568 -168.922)"/></g><path class="q" d="M216.349,99.208c.057-2.16.818-13.447,9.959-13.032s10.624,9.628,9.806,17.016-5.318,12.367-8.466,12.036S216.1,108.339,216.349,99.208Z" transform="translate(-186.999 -68.54)"/></g></g></g></g></g></svg>