<svg xmlns="http://www.w3.org/2000/svg" width="98.307" height="66" viewBox="0 0 98.307 66"><g transform="translate(-1101.9 -441.662)"><g transform="translate(1101.9 453.172)"><path d="M33.7,40.9v9.8H0V40.9a8.281,8.281,0,0,1,5.9-8l5.7-1.8L11,36.4l5.9-2.5,5.9,2.5-.7-5.3,5.7,1.8h0a8.454,8.454,0,0,1,5.9,7.7v.3Z" fill="#0a789b"/><path d="M20.2,26.3v4.2l-3.4,3.4-3.4-3.4V26.3h6.8Z" fill="#ffc477"/><path d="M26.1,13.6a1.7,1.7,0,1,1,0,3.4,2.92,2.92,0,0,1-.9-.2V13.9A2.3,2.3,0,0,1,26.1,13.6Z" fill="#ffb655"/><path d="M8.4,14.5v2.3a1.681,1.681,0,0,1-1.7-2.9,1.718,1.718,0,0,1,1.7,0Z" fill="#ffb655"/><path d="M22.1,31.1l.7,5.3-5.9-2.5,3.4-3.4Z" fill="#e6e7e8"/><path d="M20.2,26.3v1.8a8.65,8.65,0,0,1-6.7,0V26.3Z" fill="#ffb655"/><path d="M25.3,16.8v1.9a8.4,8.4,0,1,1-16.8.2V14.5s4.2-4.2,7.6-5.1a6.629,6.629,0,0,0,2.5,3.4,3.162,3.162,0,0,1,2.5-1.7,6.036,6.036,0,0,0,4.2,3.4Z" fill="#ffc06c"/><path d="M16.9,33.9,11,36.4l.7-5.3,1.9-.6Z" fill="#e6e7e8"/><path d="M25.3,13.8v.6A5.626,5.626,0,0,1,21.1,11a3.02,3.02,0,0,0-2.5,1.7,6.124,6.124,0,0,1-2.5-3.4c-3.4.8-7.6,5.1-7.6,5.1V10.2a8.4,8.4,0,0,1,16.8,0Z" fill="#57565c"/><path d="M5.1,40.6H6.8V50.7H5.1Z" fill="#08475e"/></g><g transform="translate(1157.707 453.172)"><path d="M8.8,40.9v9.8H42.5V40.9a8.281,8.281,0,0,0-5.9-8l-5.7-1.8.7,5.3-5.9-2.5-5.9,2.5.7-5.3-5.7,1.8h0a8.454,8.454,0,0,0-5.9,7.7.367.367,0,0,0-.1.3Z" fill="#0a789b"/><path d="M22.3,26.3v4.2l3.4,3.4,3.4-3.4V26.3H22.3Z" fill="#ffc477"/><path d="M16.4,13.6a1.7,1.7,0,0,0,0,3.4,2.92,2.92,0,0,0,.9-.2V13.9A1.613,1.613,0,0,0,16.4,13.6Z" fill="#ffb655"/><path d="M34.1,14.5v2.3a1.681,1.681,0,0,0,1.7-2.9,1.718,1.718,0,0,0-1.7,0Z" fill="#ffb655"/><path d="M20.4,31.1l-.7,5.3,5.9-2.5-3.4-3.4Z" fill="#e6e7e8"/><path d="M22.3,26.3v1.8a8.65,8.65,0,0,0,6.7,0V26.3Z" fill="#ffb655"/><path d="M17.2,16.8v1.9a8.4,8.4,0,1,0,16.8,0V14.5s-4.2-4.2-7.6-5.1A5.963,5.963,0,0,1,24,12.8a3.162,3.162,0,0,0-2.5-1.7,6.036,6.036,0,0,1-4.2,3.4v2.3Z" fill="#ffc06c"/><path d="M25.6,33.9l5.9,2.5-.7-5.3L29,30.5Z" fill="#e6e7e8"/><path d="M17.2,13.8v.6A5.626,5.626,0,0,0,21.4,11a3.02,3.02,0,0,1,2.5,1.7,6.124,6.124,0,0,0,2.5-3.4c3.4.8,7.6,5.1,7.6,5.1V10.2a8.4,8.4,0,1,0-16.8,0Z" fill="#57565c"/><path d="M37.5,40.6H35.8V50.7h1.7Z" fill="#08475e"/></g><g transform="translate(1124.705 441.662)"><path d="M49.1,52.7V66H3.6V52.7a11.372,11.372,0,0,1,8-10.9l7.7-2.4-.9,7.2,8-3.4,8,3.4-.9-7.2,7.7,2.4h0a11.363,11.363,0,0,1,8,10.4,1.338,1.338,0,0,0-.1.5Z" fill="#0a789b"/><path d="M30.9,33v5.7l-4.6,4.6-4.6-4.6V33Z" fill="#ffc477"/><path d="M38.9,15.9a2.3,2.3,0,1,1,0,4.6,2.016,2.016,0,0,1-1.1-.3V16.3A1.5,1.5,0,0,1,38.9,15.9Z" fill="#ffb655"/><path d="M15,17.1v3.1a2.264,2.264,0,1,1-2.3-3.9,2.354,2.354,0,0,1,2.3,0Z" fill="#ffb655"/><path d="M33.4,39.5l.9,7.2-8-3.4,4.6-4.6Z" fill="#e6e7e8"/><path d="M30.9,33v2.5a11.1,11.1,0,0,1-9.1,0V33Z" fill="#ffb655"/><path d="M37.7,20.2v2.6a11.35,11.35,0,1,1-22.7,0V17.1s5.7-5.7,10.2-6.8c0,0,1.1,3.4,3.4,4.6A4.311,4.311,0,0,1,32,12.6a7.842,7.842,0,0,0,5.7,4.6Z" fill="#ffc06c"/><path d="M26.3,43.2l-8,3.4.9-7.2,2.5-.8Z" fill="#e6e7e8"/><path d="M37.7,16.2V17A7.842,7.842,0,0,1,32,12.4a4.165,4.165,0,0,0-3.4,2.3c-2.3-1.1-3.4-4.6-3.4-4.6-4.5,1.3-10.2,7-10.2,7V11.4a11.35,11.35,0,1,1,22.7,0Z" fill="#57565c"/><path d="M19.5,18.2h2.3v2.3H19.5Z" fill="#ee8700"/><path d="M30.9,18.2h2.3v2.3H30.9V18.2Z" fill="#ee8700"/><path d="M26.3,29.6A4.588,4.588,0,0,1,21.7,25H24a2.3,2.3,0,1,0,4.6,0h2.3A4.588,4.588,0,0,1,26.3,29.6Z" fill="#ee8700"/><path d="M10.4,52.3h2.3V66H10.4Z" fill="#08475e"/></g></g></svg>