<svg xmlns="http://www.w3.org/2000/svg" width="76.276" height="75" viewBox="0 0 76.276 75">
  <g id="login-success" transform="translate(-4.26 -4)">
    <path id="Path_141" data-name="Path 141" d="M42.43,4C21.376,3.982,4.292,20.744,4.26,41.446S21.267,78.958,42.322,79s38.16-16.7,38.213-37.4C80.568,20.868,63.512,4.035,42.43,4Zm0,70.332c-18.5,0-33.488-14.742-33.488-32.928S23.935,8.476,42.43,8.476,75.919,23.218,75.919,41.4A32.679,32.679,0,0,1,66.17,64.8a33.811,33.811,0,0,1-23.74,9.721Zm21.3-44.761a2.221,2.221,0,0,1-.748,1.663l-25.555,24.3a2.394,2.394,0,0,1-1.691.671,2.429,2.429,0,0,1-1.658-.638L21.882,44.186a2.538,2.538,0,0,1-.748-1.663,2.473,2.473,0,0,1,.65-1.695,2.436,2.436,0,0,1,3.251,0l10.5,9.751,23.93-22.73a2.428,2.428,0,0,1,1.723-.671,2.553,2.553,0,0,1,1.691.736,2.352,2.352,0,0,1,.845,1.663Z" transform="translate(0 0)" fill="#65ce5c"/>
  </g>
</svg>
