<svg xmlns="http://www.w3.org/2000/svg" width="133.782" height="133.783" viewBox="0 0 133.782 133.783"><defs><style>.a{fill:#65ce5c;}</style></defs><g transform="translate(-4.26 -4)"><path class="a" d="M71.208,4a66.891,66.891,0,1,0,66.834,67.062A66.891,66.891,0,0,0,71.208,4Zm0,125.457a24.359,24.359,0,1,1,0,.342ZM108.56,49.621a3.992,3.992,0,0,1-1.312,2.965L62.426,95.926a4.163,4.163,0,0,1-2.965,1.2,4.22,4.22,0,0,1-2.908-1.141l-21.385-20.3a4.562,4.562,0,0,1-1.312-2.965A4.448,4.448,0,0,1,35,69.694a4.22,4.22,0,0,1,5.7,0L59.119,87.087,101.09,46.541a4.22,4.22,0,0,1,3.022-1.2,4.448,4.448,0,0,1,2.965,1.312,4.22,4.22,0,0,1,1.483,2.965Z" transform="translate(0 0)"/></g></svg>