<svg xmlns="http://www.w3.org/2000/svg" width="51.026" height="66" viewBox="0 0 51.026 66"><g transform="translate(-8 -1)"><g transform="translate(8 1)"><path d="M51.7,50.421c.293,0,.58.016.87.044.12.012.238.033.357.049.135.018.272.031.407.056V5H43.249V8.689a.852.852,0,0,1-.86.845H18.935a.852.852,0,0,1-.86-.845V5H8V59.785H42.656c-.008-.136-.012-.269-.012-.4A9.017,9.017,0,0,1,51.7,50.421Zm-3.629-9.379H32.955a.845.845,0,0,1,0-1.691H48.067a.845.845,0,1,1,0,1.691Zm-24.04,6.819a.852.852,0,0,1-.86.845h-9.9a.852.852,0,0,1-.86-.845V38.113a.852.852,0,0,1,.86-.845h9.9a.852.852,0,0,1,.86.845Zm8.927-1.238a.845.845,0,1,1,0-1.691H44.808a.845.845,0,1,1,0,1.691Z" transform="translate(-8 -0.748)" fill="#0a789b"/><path d="M13.761,45h8.184V36.945H13.761Zm1.2-4.681a.871.871,0,0,1,1.216-.028l.967.906,2.383-2.233a.871.871,0,0,1,1.216.028.836.836,0,0,1-.028,1.2l-2.976,2.79a.816.816,0,0,1-.186.117.769.769,0,0,1-.083.052.856.856,0,0,1-.649,0,.992.992,0,0,1-.087-.054.849.849,0,0,1-.183-.114l-1.564-1.466a.837.837,0,0,1-.025-1.193Z" transform="translate(-7.637 1.265)" fill="#05303d"/><path d="M40.829,8.1V1H19.1V8.1Z" transform="translate(-7.301 -1)" fill="#f3d55b"/><path d="M51.752,49.658a7.392,7.392,0,0,0-.977-.23c-.074-.013-.149-.023-.225-.034a7.458,7.458,0,0,0-1.01-.077,7.309,7.309,0,0,0-7.329,7.272c0,.2.014.384.029.574.016.172.037.351.067.541h0a7.321,7.321,0,1,0,9.446-8.051Zm2.461,4.835-5.655,5.4a.871.871,0,0,1-1.134.057l-2.495-1.946a.836.836,0,0,1-.14-1.183A.87.87,0,0,1,46,56.688l1.9,1.484,5.113-4.886a.872.872,0,0,1,1.216.018.833.833,0,0,1-.018,1.189Z" transform="translate(-5.845 2.045)" fill="#faa515"/><path d="M51.509,53.439V43.048a1.841,1.841,0,0,1,1.841-1.841H85.444a1.841,1.841,0,0,1,1.841,1.841V53.439a1.841,1.841,0,0,1-1.841,1.841H53.35a1.841,1.841,0,0,1-1.841-1.841Z" transform="translate(-46.733 -26.615)" fill="#2edffc"/><path d="M55.981,55.281H53.35a1.842,1.842,0,0,1-1.841-1.841V43.048a1.842,1.842,0,0,1,1.841-1.841h2.631a1.842,1.842,0,0,0-1.842,1.841V53.439a1.842,1.842,0,0,0,1.842,1.842Z" transform="translate(-46.733 -26.615)" fill="#27bdf3"/><path d="M263.235,71.774h-1.841a2.3,2.3,0,0,1-2.3-2.3V65.661a2.3,2.3,0,0,1,2.3-2.3h1.841a2.3,2.3,0,0,1,2.3,2.3v3.811A2.3,2.3,0,0,1,263.235,71.774Zm-1.841-6.45a.329.329,0,0,0-.329.328v3.811a.329.329,0,0,0,.329.328h1.841a.329.329,0,0,0,.329-.328V65.653a.329.329,0,0,0-.329-.328Z" transform="translate(-227.812 -45.935)" fill="#2b597f"/></g></g></svg>