<svg xmlns="http://www.w3.org/2000/svg" xmlns:xlink="http://www.w3.org/1999/xlink" width="960" height="674" viewBox="0 0 960 674">
  <defs>
    <clipPath id="clip-path">
      <rect id="Rectangle_523" data-name="Rectangle 523" width="960" height="674" transform="translate(960 416)" fill="#fff"/>
    </clipPath>
    <filter id="Path_13584" x="192" y="63" width="889" height="608" filterUnits="userSpaceOnUse">
      <feOffset dy="3" input="SourceAlpha"/>
      <feGaussianBlur stdDeviation="3" result="blur"/>
      <feFlood flood-opacity="0.161"/>
      <feComposite operator="in" in2="blur"/>
      <feComposite in="SourceGraphic"/>
    </filter>
    <filter id="Path_13585" x="192" y="4" width="889" height="77" filterUnits="userSpaceOnUse">
      <feOffset dy="3" input="SourceAlpha"/>
      <feGaussianBlur stdDeviation="3" result="blur-2"/>
      <feFlood flood-opacity="0.161"/>
      <feComposite operator="in" in2="blur-2"/>
      <feComposite in="SourceGraphic"/>
    </filter>
    <filter id="Rectangle_521" x="5" y="421" width="402" height="206" filterUnits="userSpaceOnUse">
      <feOffset dy="3" input="SourceAlpha"/>
      <feGaussianBlur stdDeviation="3" result="blur-3"/>
      <feFlood flood-opacity="0.161"/>
      <feComposite operator="in" in2="blur-3"/>
      <feComposite in="SourceGraphic"/>
    </filter>
    <filter id="Rectangle_522" x="5" y="314" width="402" height="102" filterUnits="userSpaceOnUse">
      <feOffset dy="3" input="SourceAlpha"/>
      <feGaussianBlur stdDeviation="3" result="blur-4"/>
      <feFlood flood-opacity="0.161"/>
      <feComposite operator="in" in2="blur-4"/>
      <feComposite in="SourceGraphic"/>
    </filter>
  </defs>
  <g id="Mask_Group_516" data-name="Mask Group 516" transform="translate(-960 -416)" clip-path="url(#clip-path)">
    <g id="Group_1914" data-name="Group 1914" transform="translate(-303.731 517.696) rotate(-6.024)" opacity="0.09">
      <ellipse id="Ellipse_51" data-name="Ellipse 51" cx="417.5" cy="415.5" rx="417.5" ry="415.5" transform="translate(746 187)" fill="#fff"/>
    </g>
    <g id="Group_1915" data-name="Group 1915" transform="translate(7 -48)">
      <g transform="matrix(1, 0, 0, 1, 953, 464)" filter="url(#Path_13584)">
        <path id="Path_13584-2" data-name="Path 13584" d="M0,0H871V573a17,17,0,0,1-17,17H17A17,17,0,0,1,0,573Z" transform="translate(201 69)" fill="#fff"/>
      </g>
      <g transform="matrix(1, 0, 0, 1, 953, 464)" filter="url(#Path_13585)">
        <path id="Path_13585-2" data-name="Path 13585" d="M13,0H858a13,13,0,0,1,13,13V59H0V13A13,13,0,0,1,13,0Z" transform="translate(201 10)" fill="#0f003b"/>
      </g>
      <g id="Ellipse_53" data-name="Ellipse 53" transform="translate(1180 497)" fill="#fff" stroke="#fff" stroke-width="1">
        <circle cx="6" cy="6" r="6" stroke="none"/>
        <circle cx="6" cy="6" r="5.5" fill="none"/>
      </g>
      <g id="Ellipse_54" data-name="Ellipse 54" transform="translate(1201 497)" fill="#fff" stroke="#fff" stroke-width="1">
        <circle cx="6" cy="6" r="6" stroke="none"/>
        <circle cx="6" cy="6" r="5.5" fill="none"/>
      </g>
      <g id="Ellipse_55" data-name="Ellipse 55" transform="translate(1222 497)" fill="#fff" stroke="#fff" stroke-width="1">
        <ellipse cx="6.5" cy="6" rx="6.5" ry="6" stroke="none"/>
        <ellipse cx="6.5" cy="6" rx="6" ry="5.5" fill="none"/>
      </g>
    </g>
    <g transform="matrix(1, 0, 0, 1, 960, 416)" filter="url(#Rectangle_521)">
      <rect id="Rectangle_521-2" data-name="Rectangle 521" width="384" height="188" rx="16" transform="translate(14 427)" fill="#fff"/>
    </g>
    <g transform="matrix(1, 0, 0, 1, 960, 416)" filter="url(#Rectangle_522)">
      <rect id="Rectangle_522-2" data-name="Rectangle 522" width="384" height="84" rx="16" transform="translate(14 320)" fill="#fff"/>
    </g>
  </g>
</svg>
