<svg xmlns="http://www.w3.org/2000/svg" width="91.904" height="66" viewBox="0 0 91.904 66"><g transform="translate(0 4.873)"><path d="M66.32,313.856v12.326H24V313.856a10.569,10.569,0,0,1,7.429-10.094l7.161-2.243-.836,6.676,7.405-3.174,7.405,3.174-.836-6.676,7.163,2.243c.01,0,.01,0,.021.01a10.544,10.544,0,0,1,7.4,9.714c.01.116.01.244.01.37Z" transform="translate(-24 -265.055)" fill="#0a789b"/><path d="M327.577,272H291.958A3.969,3.969,0,0,0,288,275.958v25.725h43.534V275.958A3.969,3.969,0,0,0,327.577,272Z" transform="translate(-245.567 -264.302)" fill="#0a789b"/><path d="M319.408,407.832H264L269.937,392h43.534Z" transform="translate(-227.504 -354.621)" fill="#acabb1"/><path d="M160.467,256v5.29l-4.232,4.232L152,261.29V256Z" transform="translate(-135.072 -225.555)" fill="#ffc477"/><path d="M319.408,456v5.937a1.979,1.979,0,0,1-1.979,1.979h-51.45A1.979,1.979,0,0,1,264,461.937V456Z" transform="translate(-227.504 -402.789)" fill="#898890"/><path d="M355.788,437.937H336L337.979,432H353.81Z" transform="translate(-281.694 -384.726)" fill="#c6c5ca"/><path d="M265.058,136A2.116,2.116,0,1,1,264,139.946v-3.661A2.116,2.116,0,0,1,265.058,136Z" transform="translate(-232.261 -121.425)" fill="#ffb655"/><path d="M83.148,137.058v2.888a2.116,2.116,0,1,1,0-3.661Z" transform="translate(-72.567 -121.425)" fill="#ffb655"/><path d="M190.57,296.73l.836,6.676L184,300.232,188.232,296Z" transform="translate(-162.841 -260.266)" fill="#e6e7e8"/><path d="M160.467,256v2.283a10.52,10.52,0,0,1-8.467,0V256Z" transform="translate(-135.072 -225.555)" fill="#ffb655"/><path d="M125.159,105.236v2.4a10.58,10.58,0,1,1-21.16,0v-5.29s5.29-5.29,9.522-6.348c0,0,1.058,3.174,3.174,4.232a3.915,3.915,0,0,1,3.174-2.116,7.288,7.288,0,0,0,5.29,4.232Z" transform="translate(-93.42 -86.715)" fill="#ffc06c"/><path d="M135.405,300.232,128,303.405l.836-6.676,2.338-.73Z" transform="translate(-114.246 -260.266)" fill="#e6e7e8"/><path d="M125.159,39.1v.773a7.288,7.288,0,0,1-5.29-4.232,3.915,3.915,0,0,0-3.174,2.116c-2.116-1.058-3.174-4.232-3.174-4.232C109.29,34.58,104,39.87,104,39.87V34.58a10.58,10.58,0,1,1,21.16,0Z" transform="translate(-93.42 -24.237)" fill="#57565c"/><path d="M405.053,313.2v19.493H385.68A46.656,46.656,0,0,0,405.053,313.2Z" transform="translate(-319.085 -295.31)" fill="#05303d"/><path d="M136,152h2.116v2.116H136Z" transform="translate(-121.188 -135.309)" fill="#ee8700"/><path d="M216,152h2.116v2.116H216Z" transform="translate(-190.608 -135.309)" fill="#ee8700"/><path d="M156.232,204.232A4.232,4.232,0,0,1,152,200h2.116a2.116,2.116,0,0,0,4.232,0h2.12a4.232,4.232,0,0,1-4.235,4.232Z" transform="translate(-135.072 -176.961)" fill="#ee8700"/><path d="M72,392h2.116v12.7H72Z" transform="translate(-65.652 -343.57)" fill="#08475e"/><g transform="translate(54.306 19.57)"><path d="M368,320h3.958v3.958H368Z" transform="translate(-360.085 -320)" fill="#3d9ae2"/><path d="M400,320h3.958v3.958H400Z" transform="translate(-384.169 -320)" fill="#3d9ae2"/><path d="M336,320h3.958v3.958H336Z" transform="translate(-336 -320)" fill="#3d9ae2"/></g><circle cx="15.238" cy="15.238" r="15.238" transform="translate(48.599 -3.484)" fill="#f3d55b"/><path d="M250.559,266.812a16.254,16.254,0,1,1,16.253-16.253,16.254,16.254,0,0,1-16.253,16.253Zm0-30.475a14.222,14.222,0,1,0,14.222,14.222A14.222,14.222,0,0,0,250.559,236.337Z" transform="translate(-186.358 -239.177)" fill="#f0c419"/><path d="M5.28,73.551l7.439-7.439a1.42,1.42,0,0,1,2.008,2.008L6.285,76.563a1.419,1.419,0,0,1-2.008,0L.422,72.708A1.42,1.42,0,0,1,2.43,70.7l2.854,2.854Z" transform="translate(56.203 -59.669)" fill="#05303d" fill-rule="evenodd"/></g></svg>